<?xml version="1.0" encoding="utf-8"?>
<!-- Generator: Adobe Illustrator 16.0.0, SVG Export Plug-In . SVG Version: 6.00 Build 0)  -->
<!DOCTYPE svg PUBLIC "-//W3C//DTD SVG 1.1//EN" "http://www.w3.org/Graphics/SVG/1.1/DTD/svg11.dtd">
<svg version="1.1" id="Layer_1" xmlns="http://www.w3.org/2000/svg" xmlns:xlink="http://www.w3.org/1999/xlink" x="0px" y="0px"
     width="78.823px" height="84.556px" viewBox="0 0 78.823 84.556" enable-background="new 0 0 78.823 84.556" xml:space="preserve">
  <g>
    <g>
      <g>
        <g>
          <g>
            <g>
              <!-- knot -->
              <path fill="#C1272D" d="M35.477,78.675c0,0.902,0.774,1.645,1.698,1.631l4.387-0.071c0.932-0.009,1.68-0.765,1.671-1.676
                      l-0.072-4.97c0-0.914-0.757-1.641-1.685-1.627l-4.368,0.063c-0.929,0.018-1.69,0.762-1.69,1.668L35.477,78.675z"/>
            </g>
          </g>
        </g>
      </g>

      <!-- left bowknot -->
      <path fill="#C1272D" d="M34.405,71.681l-0.838-0.611l-1.097-0.762l-0.917-0.603l-0.999-0.616l-1.134-0.645l-1.3-0.65l-0.84-0.355
              l-0.889-0.309l-0.88-0.215l-0.725-0.085l-0.614,0.021l-0.533,0.117l-0.492,0.234l-0.365,0.301l-0.281,0.37l-0.199,0.401
              l-0.129,0.387l-0.078,0.553l-0.131,0.567l-0.094,0.63l-0.132,1.072l-0.131,1.511l-0.052,0.97l-0.022,0.684l-0.011,0.901
              l0.01,0.956l0.046,1.228l0.049,0.793l0.066,0.796l0.118,1.072l0.099,0.709l0.061,0.389l0.104,0.487l0.105,0.332l0.16,0.392
              l0.195,0.359l0.201,0.297l0.259,0.301l0.246,0.227l0.23,0.17l0.362,0.202l0.247,0.102l0.298,0.091l0.302,0.062l0.375,0.039
              l0.344,0.005l0.33-0.021l0.465-0.063l0.457-0.099l0.405-0.113l0.781-0.264l1.102-0.421l1.364-0.596l1.428-0.713l1.303-0.733
              l1.307-0.818c0,0-0.62-0.763-0.553-2.909l-0.473,0.201l-0.396,0.164l-0.392,0.16l-0.186,0.074l-0.366,0.145l-0.443,0.171
              l-0.492,0.184l-0.438,0.157l-0.487,0.168l-0.728,0.236l-0.379,0.115l-0.401,0.115l-0.365,0.098l-0.311,0.076l-0.496,0.109
              l-0.381,0.072l-0.434,0.063l-0.315,0.032l-0.411,0.017l-0.341-0.012l-0.324-0.046l-0.236-0.064l-0.202-0.088l-0.167-0.109
              l-0.115-0.115l-0.139-0.23l-0.058-0.206l-0.006-0.18l0.064-0.238l0.185-0.254l0.202-0.171l0.181-0.115l0.254-0.132l0.341-0.141
              l0.406-0.135l0.354-0.096l0.449-0.104l0.48-0.095l0.298-0.051l0.42-0.063l0.425-0.058l0.358-0.041l0.72-0.072l0.736-0.061
              l0.767-0.049l0.668-0.033l0.588-0.021l0.614-0.018l0.519-0.01h0.403l-0.071-1.172l-0.021-0.844c0,0-0.475-0.041-0.479-0.041
              s-0.757-0.071-0.757-0.071l-0.55-0.058l-0.469-0.053l-0.79-0.1l-0.501-0.07l-0.644-0.099l-0.657-0.113l-0.487-0.093l-0.699-0.151
              l-0.556-0.14l-0.504-0.146l-0.62-0.217l-0.333-0.143l-0.422-0.225l-0.272-0.195l-0.198-0.197l-0.122-0.185l-0.059-0.156
              l-0.016-0.212l0.055-0.236l0.107-0.192l0.122-0.134l0.134-0.102l0.2-0.098l0.218-0.064l0.195-0.033l0.214-0.018l0.258-0.001h0.192
              l0.428,0.06l0.433,0.08l0.474,0.11l0.754,0.219l0.57,0.19l0.511,0.186l0.678,0.265l0.686,0.287l0.822,0.364l0.643,0.298
              l0.478,0.229l0.46,0.227l0.399,0.199l0.124,0.063l0.04-0.489l0.066-0.475l0.06-0.31l0.089-0.351l0.135-0.396l0.125-0.287
              l0.144-0.266L34.405,71.681z"/>

      <!-- right bowknot -->
      <path fill="#C1272D" d="M44.271,71.56c0,0,0.639,0.487,0.559,2.375l0.381-0.193l0.689-0.342l0.662-0.314l0.521-0.239l0.397-0.179
              l0.368-0.16l0.39-0.164l0.469-0.19l0.396-0.154l0.334-0.124l0.379-0.133l0.496-0.162l0.537-0.156l0.417-0.105l0.256-0.055
              l0.274-0.05l0.29-0.042l0.218-0.02l0.283-0.013h0.259h0.178l0.133,0.056l0.2,0.06l0.121,0.054l0.122,0.072l0.108,0.086
              l0.109,0.108l0.105,0.204l0.051,0.194l0.002,0.173l-0.033,0.146l-0.059,0.135l-0.105,0.148l-0.125,0.135l-0.193,0.156
              l-0.195,0.128l-0.233,0.129l-0.259,0.122l-0.196,0.082l-0.313,0.117l-0.305,0.103l-0.351,0.104l-0.414,0.112l-0.506,0.121
              l-0.507,0.108l-0.601,0.115l-0.517,0.089l-0.539,0.085l-0.46,0.066l-0.529,0.07l-0.59,0.072l-0.478,0.053l-0.408,0.043
              l-0.493,0.049l-0.344,0.031l-0.337,0.028c0,0,0.121,1.515,0.121,1.996l0.234,0.005l0.449,0.008l0.453,0.014l0.286,0.009
              l0.314,0.012l0.37,0.017l0.367,0.019l0.4,0.022l0.462,0.032l0.412,0.031l0.435,0.04l0.408,0.041l0.372,0.041l0.397,0.051
              l0.459,0.067l0.363,0.06l0.278,0.052l0.281,0.057l0.236,0.054l0.258,0.064l0.244,0.066l0.208,0.063l0.236,0.082l0.255,0.102
              l0.234,0.108l0.13,0.071l0.166,0.104l0.161,0.126l0.17,0.184l0.114,0.213l0.04,0.243l-0.04,0.235l-0.085,0.188l-0.09,0.123
              l-0.157,0.156l-0.196,0.097l-0.208,0.075l-0.176,0.043l-0.235,0.033l-0.247,0.017l-0.313-0.002L52.219,79.7l-0.278-0.027
              l-0.457-0.066l-0.987-0.205l-0.467-0.121l-0.831-0.242l-0.731-0.237l-1.187-0.423l-0.841-0.322l-0.86-0.348l-0.564-0.237
              c0,0,0.039,1.932-0.557,3.07l0.203,0.126l0.372,0.227l0.454,0.268l0.435,0.248l0.37,0.201l0.524,0.279l0.642,0.322l0.642,0.305
              l0.669,0.299l0.608,0.256l0.635,0.25l0.547,0.201l0.608,0.208l0.455,0.146l0.335,0.096l0.399,0.094l0.336,0.061l0.333,0.041
              l0.368,0.023l0.355-0.004l0.298-0.027l0.24-0.037l0.29-0.07l0.258-0.088l0.206-0.088l0.29-0.158l0.351-0.258l0.249-0.24
              l0.26-0.322l0.209-0.336l0.171-0.352l0.098-0.249l0.081-0.251l0.117-0.508l0.125-0.93l0.067-0.615l0.058-0.656l0.059-0.884
              l0.044-1.094l0.012-0.655l0-0.833l-0.018-0.847l-0.03-0.725l-0.052-0.859l-0.078-0.928l-0.128-1.135l-0.157-1.096l-0.211-1.186
              l-0.128-0.563l-0.152-0.42l-0.222-0.403l-0.103-0.142l-0.262-0.274l-0.364-0.25l-0.363-0.152l-0.38-0.088l-0.402-0.035h-0.205
              l-0.245,0.014l-0.288,0.033l-0.424,0.076l-0.438,0.109l-0.622,0.199l-0.496,0.189l-0.837,0.371l-0.851,0.432l-0.726,0.406
              l-0.766,0.459l-0.795,0.509l-1.217,0.833l-1.165,0.852L44.271,71.56z"/>
    </g>
    <g>
      <!-- left eye -->
      <path fill="#1D181C" d="M25.318,35.048c-0.707-0.765-1.906-1.606-3.618-1.905c-0.494-0.086-0.958-0.129-1.393-0.129
              c-1.316,0-2.371,0.348-3.125,0.68c-0.744,0.337-1.162,0.695-1.226,0.744c-0.583,0.481-0.653,1.359-0.177,1.937
              c0.477,0.579,1.354,0.643,1.927,0.16c0.047-0.021,0.315-0.213,0.723-0.396c0.455-0.198,1.076-0.379,1.878-0.379
              c0.29,0,0.579,0.026,0.899,0.08c1.114,0.209,1.729,0.674,2.12,1.081c0.193,0.203,0.338,0.396,0.407,0.535
              c0.038,0.07,0.064,0.113,0.064,0.134c0.226,0.541,0.739,0.883,1.291,0.883c0.171,0,0.327-0.042,0.492-0.096
              c0.707-0.262,1.055-1.06,0.782-1.767C26.324,36.493,26.046,35.814,25.318,35.048z"/>

      <!-- right eye -->
      <path fill="#1D181C" d="M61.562,33.758c-0.728-0.354-1.793-0.68-3.116-0.68c-0.428,0-0.894,0.021-1.392,0.107
              c-1.708,0.3-2.896,1.135-3.64,1.895c-0.707,0.76-0.979,1.445-1.028,1.552c-0.267,0.701,0.07,1.5,0.787,1.772
              c0.155,0.069,0.327,0.09,0.482,0.09c0.54,0,1.065-0.326,1.284-0.872c0-0.032,0.043-0.07,0.07-0.139
              c0.08-0.124,0.203-0.316,0.407-0.52c0.396-0.412,1.017-0.872,2.12-1.086c0.337-0.054,0.637-0.08,0.91-0.08
              c0.792,0,1.43,0.209,1.873,0.401c0.418,0.177,0.67,0.37,0.718,0.412c0.589,0.476,1.451,0.391,1.927-0.166
              c0.493-0.589,0.407-1.44-0.166-1.933C62.74,34.438,62.312,34.101,61.562,33.758z"/>

      <!-- mouth -->
      <path fill="#1D181C" d="M54.459,51.471c-0.37-0.258-0.862-0.118-1.114,0.321c-0.23,0.412-0.144,0.975,0.225,1.215l0.53,0.369
              c-1.353,2.32-9.115,4.05-17.085,3.806c-6.539-0.213-11.396-1.707-12.358-3.798l0.544-0.377c0.37-0.24,0.466-0.803,0.214-1.215
              c-0.252-0.439-0.728-0.579-1.092-0.321l-3.104,2.14c-0.38,0.251-0.476,0.814-0.225,1.237c0.241,0.422,0.744,0.566,1.103,0.31
              l0.887-0.615c2.177,3.863,10.44,4.563,13.972,4.684c0.476,0.01,0.979,0.01,1.51,0.01c6.291,0,15.046-1.19,17.309-4.698
              l0.891,0.619c0.386,0.257,0.862,0.113,1.113-0.31c0.241-0.423,0.145-0.986-0.225-1.237L54.459,51.471z"/>

      <!-- head -->
      <path fill="#1D181C" d="M77.038,7.03c0,0-1.204-2.354-3.748-4.287c0,0-2.157-1.522-3.611-1.953c0,0-2.019-0.79-4.339-0.79
              c-2.321,0-51.975,0.002-51.975,0.002S9.576-0.124,6.137,2.254c0,0-2.447,1.493-4.227,4.434c0,0-1.908,2.856-1.908,6.681
              C0.002,17.194,0,65.254,0,65.254s-0.073,3.341,1.544,6.148c0,0,1.293,2.661,3.681,4.429c0,0,3.423,2.912,8.066,2.912
              s6.716,0.005,6.716,0.005v-5.754h-1.636h-1.311h-1.583h-1.584h-0.491c0,0-1.907-0.026-3.484-0.916c0,0-1.667-0.798-2.705-2.364
              c-1.038-1.565-1.475-2.914-1.476-4.497c0-0.892-0.001-17.155-0.001-31.189c0.064,0.017,0.125,0.046,0.193,0.046h2.264
              c0.059,0,0.107-0.016,0.182-0.026c0.729,5.411,2.981,12.724,8.458,12.724c8.072,0.085,19.688,1.248,20.201-14.619
              c0.841-0.257,1.762-0.391,2.72-0.391c0.947,0,1.857,0.134,2.676,0.38c0.487,15.877,12.113,14.715,20.201,14.63
              c5.459,0,7.703-7.296,8.457-12.697h1.724c0.065,0,0.124-0.029,0.186-0.044c-0.001,14.516-0.003,31.331-0.003,31.331
              s0.01,2.2-1.275,4.069c0,0-1.252,1.915-3.226,2.811c0,0-1.39,0.749-3.192,0.751c-1.802,0.003-6.563,0.003-6.563,0.003v5.754
              l6.526-0.001c0,0,2.731-0.064,4.383-0.779c0,0,3.093-1.031,5.171-3.305c0,0,1.868-1.669,3.12-4.911c0,0,0.819-2.094,0.819-4.616
              c0-2.521,0-51.765,0-51.765S78.742,9.836,77.038,7.03z M23.985,43.966c-10.422,0.835-12.221-0.69-12.831-11.985
              c-0.166-2.767,20.25-3.608,22.814-0.524C34.123,34.54,34.434,43.125,23.985,43.966z M55.465,43.966
              c-10.448-0.84-10.122-9.426-9.983-12.509c2.58-3.084,22.984-2.243,22.83,0.524C67.674,43.275,65.898,44.801,55.465,43.966z
               M72.813,29.192h-1.446c-0.026-0.502-0.102-0.792-0.182-0.819c-11.059-3.489-27.235-1.707-28.616,0.466
              c-0.895-0.225-1.82-0.332-2.815-0.332c-0.991,0-1.954,0.107-2.849,0.343c-1.354-2.184-17.567-3.982-28.637-0.477
              c-0.075,0.027-0.144,0.317-0.182,0.819H5.93c-0.068,0-0.129,0.029-0.193,0.047c0-8.742,0-15.629,0-15.629
              s-0.033-1.792,0.793-3.437c0,0,0.889-1.736,1.914-2.491C9.47,6.927,8.504,7.632,8.504,7.632s1.856-1.773,4.861-1.876l51.922-0.002
              c0,0,1.977-0.025,3.709,1.011c0,0,2.175,1.288,2.878,2.795c0,0,1.126,1.818,1.126,3.811c0,0.707,0,7.454-0.001,15.866
              C72.938,29.221,72.879,29.192,72.813,29.192z"/>
    </g>
  </g>
</svg>
